<svg width="503" height="65" viewBox="0 0 503 65" fill="none" xmlns="http://www.w3.org/2000/svg">
<rect width="504" height="65" transform="translate(-1)" fill="#E8E8E8"/>
<path d="M69.625 31.4062V44.5312C69.625 44.8213 69.5098 45.0995 69.3046 45.3046C69.0995 45.5097 68.8213 45.625 68.5312 45.625H60.875C60.5849 45.625 60.3067 45.5097 60.1016 45.3046C59.8965 45.0995 59.7812 44.8213 59.7812 44.5312V37.4218C59.7812 37.2768 59.7236 37.1377 59.6211 37.0351C59.5185 36.9326 59.3794 36.875 59.2344 36.875H53.7656C53.6206 36.875 53.4815 36.9326 53.3789 37.0351C53.2764 37.1377 53.2188 37.2768 53.2188 37.4218V44.5312C53.2188 44.8213 53.1035 45.0995 52.8984 45.3046C52.6933 45.5097 52.4151 45.625 52.125 45.625H44.4688C44.1787 45.625 43.9005 45.5097 43.6954 45.3046C43.4902 45.0995 43.375 44.8213 43.375 44.5312V31.4062C43.3753 30.8262 43.6059 30.27 44.0162 29.8599L54.9537 18.9224C55.3639 18.5125 55.9201 18.2822 56.5 18.2822C57.0799 18.2822 57.6361 18.5125 58.0463 18.9224L68.9838 29.8599C69.3941 30.27 69.6247 30.8262 69.625 31.4062Z" fill="black"/>
<path d="M167.649 44.8511L160.803 38.007C162.787 35.6249 163.777 32.5697 163.566 29.4767C163.354 26.3838 161.959 23.4914 159.67 21.4011C157.38 19.3108 154.373 18.1837 151.274 18.2541C148.174 18.3245 145.221 19.5871 143.029 21.7793C140.837 23.9714 139.575 26.9242 139.504 30.0236C139.434 33.1229 140.561 36.1301 142.651 38.4195C144.741 40.709 147.634 42.1044 150.727 42.3156C153.82 42.5267 156.875 41.5374 159.257 39.5533L166.101 46.3988C166.203 46.5004 166.323 46.581 166.456 46.636C166.589 46.691 166.731 46.7193 166.875 46.7193C167.019 46.7193 167.161 46.691 167.294 46.636C167.427 46.581 167.547 46.5004 167.649 46.3988C167.75 46.2972 167.831 46.1765 167.886 46.0437C167.941 45.911 167.969 45.7687 167.969 45.6249C167.969 45.4812 167.941 45.3389 167.886 45.2062C167.831 45.0734 167.75 44.9527 167.649 44.8511ZM141.719 30.3124C141.719 28.3655 142.296 26.4623 143.378 24.8436C144.459 23.2248 145.997 21.9631 147.795 21.218C149.594 20.473 151.573 20.278 153.483 20.6578C155.392 21.0377 157.146 21.9752 158.523 23.3519C159.9 24.7285 160.837 26.4825 161.217 28.392C161.597 30.3015 161.402 32.2808 160.657 34.0795C159.912 35.8782 158.65 37.4156 157.031 38.4972C155.413 39.5789 153.509 40.1562 151.562 40.1562C148.953 40.1533 146.45 39.1153 144.605 37.2698C142.76 35.4244 141.722 32.9223 141.719 30.3124Z" fill="black"/>
<path d="M261.938 19.375H258.656V18.2812C258.656 17.9912 258.541 17.713 258.336 17.5079C258.131 17.3027 257.853 17.1875 257.562 17.1875C257.272 17.1875 256.994 17.3027 256.789 17.5079C256.584 17.713 256.469 17.9912 256.469 18.2812V19.375H245.531V18.2812C245.531 17.9912 245.416 17.713 245.211 17.5079C245.006 17.3027 244.728 17.1875 244.438 17.1875C244.147 17.1875 243.869 17.3027 243.664 17.5079C243.459 17.713 243.344 17.9912 243.344 18.2812V19.375H240.062C239.482 19.375 238.926 19.6055 238.516 20.0157C238.105 20.4259 237.875 20.9823 237.875 21.5625V43.4375C237.875 44.0177 238.105 44.5741 238.516 44.9843C238.926 45.3945 239.482 45.625 240.062 45.625H261.938C262.518 45.625 263.074 45.3945 263.484 44.9843C263.895 44.5741 264.125 44.0177 264.125 43.4375V21.5625C264.125 20.9823 263.895 20.4259 263.484 20.0157C263.074 19.6055 262.518 19.375 261.938 19.375ZM243.344 21.5625V22.6562C243.344 22.9463 243.459 23.2245 243.664 23.4296C243.869 23.6348 244.147 23.75 244.438 23.75C244.728 23.75 245.006 23.6348 245.211 23.4296C245.416 23.2245 245.531 22.9463 245.531 22.6562V21.5625H256.469V22.6562C256.469 22.9463 256.584 23.2245 256.789 23.4296C256.994 23.6348 257.272 23.75 257.562 23.75C257.853 23.75 258.131 23.6348 258.336 23.4296C258.541 23.2245 258.656 22.9463 258.656 22.6562V21.5625H261.938V25.9375H240.062V21.5625H243.344ZM261.938 43.4375H240.062V28.125H261.938V43.4375Z" fill="black"/>
<path d="M363.45 28.2973C363.314 27.8769 363.056 27.5064 362.709 27.2325C362.362 26.9585 361.941 26.7934 361.501 26.7579L353.434 26.1071L350.32 18.5752C350.151 18.1648 349.865 17.8138 349.496 17.5667C349.128 17.3197 348.694 17.1877 348.251 17.1877C347.807 17.1877 347.373 17.3197 347.005 17.5667C346.637 17.8138 346.35 18.1648 346.181 18.5752L343.07 26.1057L334.999 26.7579C334.558 26.7952 334.137 26.9619 333.79 27.2372C333.443 27.5125 333.185 27.884 333.048 28.3053C332.912 28.7266 332.902 29.1789 333.021 29.6055C333.141 30.0321 333.383 30.4141 333.718 30.7036L339.871 36.0124L337.996 43.9503C337.891 44.3815 337.917 44.8342 338.07 45.2508C338.223 45.6674 338.496 46.0292 338.855 46.2903C339.214 46.5513 339.642 46.6999 340.086 46.717C340.529 46.7342 340.968 46.6191 341.346 46.3866L348.25 42.1374L355.158 46.3866C355.537 46.6164 355.974 46.7292 356.416 46.7108C356.858 46.6923 357.285 46.5435 357.643 46.283C358.001 46.0225 358.273 45.662 358.426 45.2469C358.58 44.8318 358.607 44.3807 358.504 43.9503L356.623 36.011L362.775 30.7022C363.113 30.4132 363.358 30.0304 363.478 29.6023C363.598 29.1742 363.588 28.72 363.45 28.2973ZM361.353 29.0452L354.695 34.7874C354.543 34.9182 354.43 35.0883 354.368 35.279C354.307 35.4698 354.299 35.6738 354.345 35.8688L356.379 44.4547C356.385 44.4666 356.385 44.48 356.381 44.4922C356.376 44.5044 356.368 44.5145 356.356 44.5204C356.331 44.5395 356.325 44.5354 356.304 44.5204L348.823 39.9198C348.651 39.8139 348.452 39.7578 348.25 39.7578C348.048 39.7578 347.849 39.8139 347.677 39.9198L340.196 44.5231C340.175 44.5354 340.17 44.5395 340.144 44.5231C340.132 44.5172 340.124 44.5071 340.119 44.4949C340.115 44.4827 340.115 44.4693 340.121 44.4575L342.155 35.8715C342.201 35.6765 342.193 35.4725 342.132 35.2818C342.07 35.0911 341.957 34.921 341.805 34.7901L335.147 29.0479C335.13 29.0342 335.115 29.0219 335.129 28.9795C335.143 28.9372 335.154 28.9426 335.174 28.9399L343.913 28.2344C344.114 28.2172 344.306 28.1451 344.468 28.0259C344.63 27.9068 344.756 27.7452 344.832 27.559L348.198 19.4092C348.209 19.386 348.213 19.3751 348.246 19.3751C348.279 19.3751 348.283 19.386 348.294 19.4092L351.668 27.559C351.745 27.7453 351.872 27.9067 352.035 28.0254C352.197 28.1441 352.39 28.2155 352.591 28.2317L361.33 28.9372C361.35 28.9372 361.363 28.9372 361.375 28.9768C361.387 29.0165 361.375 29.0315 361.353 29.0452Z" fill="black"/>
<path d="M459.571 43.9844C457.489 40.3846 454.28 37.8034 450.535 36.5797C452.388 35.4771 453.827 33.7968 454.632 31.797C455.437 29.7973 455.563 27.5886 454.991 25.5101C454.419 23.4317 453.181 21.5984 451.466 20.2918C449.752 18.9852 447.656 18.2776 445.5 18.2776C443.344 18.2776 441.248 18.9852 439.534 20.2918C437.819 21.5984 436.581 23.4317 436.009 25.5101C435.437 27.5886 435.563 29.7973 436.368 31.797C437.173 33.7968 438.612 35.4771 440.465 36.5797C436.72 37.802 433.511 40.3833 431.429 43.9844C431.353 44.1089 431.302 44.2475 431.28 44.3919C431.258 44.5363 431.265 44.6836 431.301 44.8252C431.337 44.9668 431.401 45.0997 431.489 45.2162C431.577 45.3327 431.688 45.4303 431.814 45.5034C431.941 45.5764 432.081 45.6234 432.225 45.6415C432.37 45.6597 432.518 45.6486 432.658 45.609C432.799 45.5693 432.93 45.502 433.044 45.4108C433.158 45.3196 433.253 45.2065 433.323 45.0782C435.898 40.6266 440.451 37.9688 445.5 37.9688C450.549 37.9688 455.102 40.6266 457.678 45.0782C457.747 45.2065 457.842 45.3196 457.956 45.4108C458.07 45.502 458.201 45.5693 458.342 45.609C458.483 45.6486 458.63 45.6597 458.775 45.6415C458.92 45.6234 459.059 45.5764 459.186 45.5034C459.312 45.4303 459.423 45.3327 459.511 45.2162C459.599 45.0997 459.663 44.9668 459.699 44.8252C459.735 44.6836 459.742 44.5363 459.72 44.3919C459.698 44.2475 459.648 44.1089 459.571 43.9844ZM437.844 28.1251C437.844 26.6108 438.293 25.1305 439.134 23.8715C439.975 22.6124 441.171 21.6311 442.57 21.0516C443.969 20.4721 445.509 20.3205 446.994 20.6159C448.479 20.9113 449.843 21.6405 450.914 22.7113C451.985 23.782 452.714 25.1462 453.009 26.6314C453.305 28.1166 453.153 29.656 452.574 31.055C451.994 32.454 451.013 33.6497 449.754 34.491C448.495 35.3323 447.014 35.7813 445.5 35.7813C443.47 35.7791 441.524 34.9718 440.089 33.5364C438.653 32.1011 437.846 30.155 437.844 28.1251Z" fill="black"/>
</svg>
