<svg width="504" height="65" viewBox="0 0 504 65" fill="none" xmlns="http://www.w3.org/2000/svg">
<rect width="504" height="65" fill="#E8E8E8"/>
<path d="M69.9838 29.8586L59.0463 18.9211C58.6361 18.5112 58.0799 18.2809 57.5 18.2809C56.9201 18.2809 56.3639 18.5112 55.9537 18.9211L45.0162 29.8586C44.8121 30.0612 44.6503 30.3023 44.5402 30.568C44.4302 30.8337 44.374 31.1186 44.375 31.4062V44.5312C44.375 44.8213 44.4902 45.0995 44.6954 45.3046C44.9005 45.5098 45.1787 45.625 45.4688 45.625H54.2188C54.5088 45.625 54.787 45.5098 54.9922 45.3046C55.1973 45.0995 55.3125 44.8213 55.3125 44.5312V36.875H59.6875V44.5312C59.6875 44.8213 59.8027 45.0995 60.0079 45.3046C60.213 45.5098 60.4912 45.625 60.7813 45.625H69.5313C69.8213 45.625 70.0995 45.5098 70.3047 45.3046C70.5098 45.0995 70.625 44.8213 70.625 44.5312V31.4062C70.626 31.1186 70.5699 30.8337 70.4598 30.568C70.3497 30.3023 70.1879 30.0612 69.9838 29.8586ZM68.4375 43.4375H61.875V35.7812C61.875 35.4912 61.7598 35.213 61.5547 35.0078C61.3495 34.8027 61.0713 34.6875 60.7813 34.6875H54.2188C53.9287 34.6875 53.6505 34.8027 53.4454 35.0078C53.2402 35.213 53.125 35.4912 53.125 35.7812V43.4375H46.5625V31.4062L57.5 20.4687L68.4375 31.4062V43.4375Z" fill="black"/>
<path d="M168.649 44.8512L161.803 38.007C163.787 35.625 164.777 32.5697 164.566 29.4768C164.354 26.3839 162.959 23.4914 160.67 21.4011C158.38 19.3109 155.373 18.1837 152.274 18.2542C149.174 18.3246 146.221 19.5872 144.029 21.7793C141.837 23.9714 140.575 26.9243 140.504 30.0236C140.434 33.123 141.561 36.1301 143.651 38.4196C145.741 40.709 148.634 42.1045 151.727 42.3156C154.82 42.5268 157.875 41.5374 160.257 39.5533L167.101 46.3988C167.203 46.5005 167.323 46.5811 167.456 46.6361C167.589 46.6911 167.731 46.7194 167.875 46.7194C168.019 46.7194 168.161 46.6911 168.294 46.6361C168.427 46.5811 168.547 46.5005 168.649 46.3988C168.75 46.2972 168.831 46.1766 168.886 46.0438C168.941 45.911 168.969 45.7687 168.969 45.625C168.969 45.4813 168.941 45.339 168.886 45.2062C168.831 45.0734 168.75 44.9528 168.649 44.8512ZM142.719 30.3125C142.719 28.3656 143.296 26.4624 144.378 24.8436C145.459 23.2248 146.997 21.9631 148.795 21.2181C150.594 20.473 152.573 20.2781 154.483 20.6579C156.392 21.0377 158.146 21.9753 159.523 23.3519C160.9 24.7286 161.837 26.4826 162.217 28.3921C162.597 30.3016 162.402 32.2808 161.657 34.0795C160.912 35.8783 159.65 37.4156 158.031 38.4973C156.413 39.5789 154.509 40.1563 152.562 40.1563C149.953 40.1534 147.45 39.1153 145.605 37.2699C143.76 35.4245 142.722 32.9223 142.719 30.3125Z" fill="black"/>
<path d="M262.938 19.375H259.656V18.2812C259.656 17.9912 259.541 17.713 259.336 17.5079C259.131 17.3027 258.853 17.1875 258.562 17.1875C258.272 17.1875 257.994 17.3027 257.789 17.5079C257.584 17.713 257.469 17.9912 257.469 18.2812V19.375H246.531V18.2812C246.531 17.9912 246.416 17.713 246.211 17.5079C246.006 17.3027 245.728 17.1875 245.438 17.1875C245.147 17.1875 244.869 17.3027 244.664 17.5079C244.459 17.713 244.344 17.9912 244.344 18.2812V19.375H241.062C240.482 19.375 239.926 19.6055 239.516 20.0157C239.105 20.4259 238.875 20.9823 238.875 21.5625V43.4375C238.875 44.0177 239.105 44.5741 239.516 44.9843C239.926 45.3945 240.482 45.625 241.062 45.625H262.938C263.518 45.625 264.074 45.3945 264.484 44.9843C264.895 44.5741 265.125 44.0177 265.125 43.4375V21.5625C265.125 20.9823 264.895 20.4259 264.484 20.0157C264.074 19.6055 263.518 19.375 262.938 19.375ZM244.344 21.5625V22.6562C244.344 22.9463 244.459 23.2245 244.664 23.4296C244.869 23.6348 245.147 23.75 245.438 23.75C245.728 23.75 246.006 23.6348 246.211 23.4296C246.416 23.2245 246.531 22.9463 246.531 22.6562V21.5625H257.469V22.6562C257.469 22.9463 257.584 23.2245 257.789 23.4296C257.994 23.6348 258.272 23.75 258.562 23.75C258.853 23.75 259.131 23.6348 259.336 23.4296C259.541 23.2245 259.656 22.9463 259.656 22.6562V21.5625H262.938V25.9375H241.062V21.5625H244.344ZM262.938 43.4375H241.062V28.125H262.938V43.4375Z" fill="black"/>
<path d="M364.45 28.2973C364.314 27.8769 364.056 27.5064 363.709 27.2324C363.362 26.9585 362.941 26.7933 362.501 26.7578L354.434 26.107L351.32 18.5752C351.151 18.1648 350.865 17.8137 350.496 17.5667C350.128 17.3196 349.694 17.1877 349.251 17.1877C348.807 17.1877 348.373 17.3196 348.005 17.5667C347.637 17.8137 347.35 18.1648 347.181 18.5752L344.07 26.1057L335.999 26.7578C335.558 26.7951 335.137 26.9619 334.79 27.2372C334.443 27.5124 334.185 27.884 334.048 28.3053C333.912 28.7266 333.902 29.1788 334.021 29.6055C334.141 30.0321 334.383 30.414 334.718 30.7035L340.871 36.0123L338.996 43.9502C338.891 44.3814 338.917 44.8341 339.07 45.2507C339.223 45.6674 339.496 46.0292 339.855 46.2902C340.214 46.5513 340.642 46.6998 341.086 46.717C341.529 46.7341 341.968 46.6191 342.346 46.3865L349.25 42.1373L356.158 46.3865C356.537 46.6163 356.974 46.7291 357.416 46.7107C357.858 46.6923 358.285 46.5434 358.643 46.283C359.001 46.0225 359.273 45.662 359.426 45.2469C359.58 44.8318 359.607 44.3806 359.504 43.9502L357.623 36.0109L363.775 30.7021C364.113 30.4132 364.358 30.0304 364.478 29.6022C364.598 29.1741 364.588 28.72 364.45 28.2973ZM362.353 29.0451L355.695 34.7873C355.543 34.9182 355.43 35.0883 355.368 35.279C355.307 35.4697 355.299 35.6737 355.345 35.8687L357.379 44.4547C357.385 44.4665 357.385 44.4799 357.381 44.4921C357.376 44.5043 357.368 44.5144 357.356 44.5203C357.331 44.5394 357.325 44.5353 357.304 44.5203L349.823 39.9197C349.651 39.8138 349.452 39.7577 349.25 39.7577C349.048 39.7577 348.849 39.8138 348.677 39.9197L341.196 44.523C341.175 44.5353 341.17 44.5394 341.144 44.523C341.132 44.5172 341.124 44.5071 341.119 44.4949C341.115 44.4827 341.115 44.4693 341.121 44.4574L343.155 35.8715C343.201 35.6765 343.193 35.4724 343.132 35.2817C343.07 35.091 342.957 34.9209 342.805 34.79L336.147 29.0478C336.13 29.0342 336.115 29.0219 336.129 28.9795C336.143 28.9371 336.154 28.9426 336.174 28.9398L344.913 28.2344C345.114 28.2172 345.306 28.145 345.468 28.0259C345.63 27.9067 345.756 27.7452 345.832 27.559L349.198 19.4092C349.209 19.3859 349.213 19.375 349.246 19.375C349.279 19.375 349.283 19.3859 349.294 19.4092L352.668 27.559C352.745 27.7452 352.872 27.9066 353.035 28.0253C353.197 28.144 353.39 28.2154 353.591 28.2316L362.33 28.9371C362.35 28.9371 362.363 28.9371 362.375 28.9768C362.387 29.0164 362.375 29.0314 362.353 29.0451Z" fill="black"/>
<path d="M460.572 45.0781C460.476 45.2444 460.338 45.3825 460.172 45.4785C460.006 45.5745 459.817 45.625 459.625 45.625H433.375C433.183 45.6248 432.995 45.5741 432.828 45.478C432.662 45.382 432.524 45.2439 432.429 45.0776C432.333 44.9114 432.282 44.7229 432.282 44.531C432.282 44.3391 432.333 44.1506 432.429 43.9844C434.511 40.3846 437.72 37.8033 441.465 36.5797C439.612 35.477 438.173 33.7967 437.368 31.797C436.563 29.7972 436.437 27.5885 437.009 25.5101C437.581 23.4316 438.819 21.5983 440.534 20.2917C442.248 18.9852 444.344 18.2775 446.5 18.2775C448.656 18.2775 450.752 18.9852 452.466 20.2917C454.181 21.5983 455.419 23.4316 455.991 25.5101C456.563 27.5885 456.437 29.7972 455.632 31.797C454.827 33.7967 453.388 35.477 451.535 36.5797C455.28 37.8033 458.489 40.3846 460.571 43.9844C460.667 44.1505 460.718 44.3391 460.718 44.5311C460.719 44.7231 460.668 44.9117 460.572 45.0781Z" fill="black"/>
</svg>
