<svg width="504" height="65" viewBox="0 0 504 65" fill="none" xmlns="http://www.w3.org/2000/svg">
<rect width="504" height="65" fill="#E8E8E8"/>
<path d="M69.9838 29.8587L59.0463 18.9212C58.6361 18.5113 58.0799 18.281 57.5 18.281C56.9201 18.281 56.3639 18.5113 55.9537 18.9212L45.0162 29.8587C44.8121 30.0613 44.6503 30.3025 44.5402 30.5682C44.4302 30.8338 44.374 31.1188 44.375 31.4064V44.5314C44.375 44.8214 44.4902 45.0996 44.6954 45.3048C44.9005 45.5099 45.1787 45.6251 45.4688 45.6251H54.2188C54.5088 45.6251 54.787 45.5099 54.9922 45.3048C55.1973 45.0996 55.3125 44.8214 55.3125 44.5314V36.8751H59.6875V44.5314C59.6875 44.8214 59.8027 45.0996 60.0079 45.3048C60.213 45.5099 60.4912 45.6251 60.7813 45.6251H69.5313C69.8213 45.6251 70.0995 45.5099 70.3047 45.3048C70.5098 45.0996 70.625 44.8214 70.625 44.5314V31.4064C70.626 31.1188 70.5699 30.8338 70.4598 30.5682C70.3497 30.3025 70.1879 30.0613 69.9838 29.8587ZM68.4375 43.4376H61.875V35.7814C61.875 35.4913 61.7598 35.2131 61.5547 35.008C61.3495 34.8028 61.0713 34.6876 60.7813 34.6876H54.2188C53.9287 34.6876 53.6505 34.8028 53.4454 35.008C53.2402 35.2131 53.125 35.4913 53.125 35.7814V43.4376H46.5625V31.4064L57.5 20.4689L68.4375 31.4064V43.4376Z" fill="black"/>
<path d="M168.649 44.8511L161.803 38.007C163.787 35.6249 164.777 32.5697 164.566 29.4767C164.354 26.3838 162.959 23.4914 160.67 21.4011C158.38 19.3108 155.373 18.1837 152.274 18.2541C149.174 18.3245 146.221 19.5871 144.029 21.7793C141.837 23.9714 140.575 26.9242 140.504 30.0236C140.434 33.1229 141.561 36.1301 143.651 38.4195C145.741 40.709 148.634 42.1044 151.727 42.3156C154.82 42.5267 157.875 41.5374 160.257 39.5533L167.101 46.3988C167.203 46.5004 167.323 46.581 167.456 46.636C167.589 46.691 167.731 46.7193 167.875 46.7193C168.019 46.7193 168.161 46.691 168.294 46.636C168.427 46.581 168.547 46.5004 168.649 46.3988C168.75 46.2972 168.831 46.1765 168.886 46.0437C168.941 45.911 168.969 45.7687 168.969 45.6249C168.969 45.4812 168.941 45.3389 168.886 45.2062C168.831 45.0734 168.75 44.9527 168.649 44.8511ZM142.719 30.3124C142.719 28.3655 143.296 26.4623 144.378 24.8436C145.459 23.2248 146.997 21.9631 148.795 21.218C150.594 20.473 152.573 20.278 154.483 20.6578C156.392 21.0377 158.146 21.9752 159.523 23.3519C160.9 24.7285 161.837 26.4825 162.217 28.392C162.597 30.3015 162.402 32.2808 161.657 34.0795C160.912 35.8782 159.65 37.4156 158.031 38.4972C156.413 39.5789 154.509 40.1562 152.562 40.1562C149.953 40.1533 147.45 39.1153 145.605 37.2698C143.76 35.4244 142.722 32.9223 142.719 30.3124Z" fill="black"/>
<path d="M262.938 19.375H259.656V18.2812C259.656 17.9912 259.541 17.713 259.336 17.5079C259.131 17.3027 258.853 17.1875 258.562 17.1875C258.272 17.1875 257.994 17.3027 257.789 17.5079C257.584 17.713 257.469 17.9912 257.469 18.2812V19.375H246.531V18.2812C246.531 17.9912 246.416 17.713 246.211 17.5079C246.006 17.3027 245.728 17.1875 245.438 17.1875C245.147 17.1875 244.869 17.3027 244.664 17.5079C244.459 17.713 244.344 17.9912 244.344 18.2812V19.375H241.062C240.482 19.375 239.926 19.6055 239.516 20.0157C239.105 20.4259 238.875 20.9823 238.875 21.5625V43.4375C238.875 44.0177 239.105 44.5741 239.516 44.9843C239.926 45.3945 240.482 45.625 241.062 45.625H262.938C263.518 45.625 264.074 45.3945 264.484 44.9843C264.895 44.5741 265.125 44.0177 265.125 43.4375V21.5625C265.125 20.9823 264.895 20.4259 264.484 20.0157C264.074 19.6055 263.518 19.375 262.938 19.375ZM244.344 21.5625V22.6562C244.344 22.9463 244.459 23.2245 244.664 23.4296C244.869 23.6348 245.147 23.75 245.438 23.75C245.728 23.75 246.006 23.6348 246.211 23.4296C246.416 23.2245 246.531 22.9463 246.531 22.6562V21.5625H257.469V22.6562C257.469 22.9463 257.584 23.2245 257.789 23.4296C257.994 23.6348 258.272 23.75 258.562 23.75C258.853 23.75 259.131 23.6348 259.336 23.4296C259.541 23.2245 259.656 22.9463 259.656 22.6562V21.5625H262.938V25.9375H241.062V21.5625H244.344ZM262.938 43.4375H241.062V28.125H262.938V43.4375Z" fill="black"/>
<path d="M363.782 30.7021L357.63 36.0108L359.504 43.9501C359.607 44.3811 359.581 44.8331 359.428 45.2489C359.274 45.6648 359.001 46.0259 358.643 46.2866C358.284 46.5473 357.857 46.6959 357.414 46.7137C356.971 46.7314 356.533 46.6176 356.154 46.3864L349.25 42.1372L342.342 46.3864C341.964 46.6162 341.526 46.729 341.084 46.7106C340.642 46.6922 340.215 46.5434 339.857 46.2829C339.5 46.0224 339.227 45.6619 339.074 45.2468C338.921 44.8317 338.894 44.3805 338.996 43.9501L340.878 36.0108L334.725 30.7021C334.391 30.4129 334.149 30.0316 334.03 29.6058C333.91 29.1799 333.919 28.7284 334.055 28.3077C334.191 27.8869 334.448 27.5155 334.794 27.2398C335.14 26.9642 335.559 26.7965 335.999 26.7577L344.066 26.1069L347.178 18.5765C347.346 18.1661 347.633 17.815 348.001 17.5679C348.37 17.3209 348.803 17.189 349.247 17.189C349.69 17.189 350.124 17.3209 350.492 17.5679C350.861 17.815 351.148 18.1661 351.316 18.5765L354.426 26.1069L362.493 26.7577C362.934 26.795 363.355 26.9618 363.702 27.2371C364.049 27.5123 364.307 27.8839 364.443 28.3052C364.58 28.7265 364.59 29.1788 364.471 29.6054C364.351 30.032 364.109 30.414 363.774 30.7034L363.782 30.7021Z" fill="black"/>
<path d="M460.571 43.9844C458.489 40.3846 455.28 37.8034 451.535 36.5797C453.388 35.4771 454.827 33.7968 455.632 31.797C456.437 29.7973 456.563 27.5886 455.991 25.5101C455.419 23.4317 454.181 21.5984 452.466 20.2918C450.752 18.9852 448.656 18.2776 446.5 18.2776C444.344 18.2776 442.248 18.9852 440.534 20.2918C438.819 21.5984 437.581 23.4317 437.009 25.5101C436.437 27.5886 436.563 29.7973 437.368 31.797C438.173 33.7968 439.612 35.4771 441.465 36.5797C437.72 37.802 434.511 40.3833 432.429 43.9844C432.353 44.1089 432.302 44.2475 432.28 44.3919C432.258 44.5363 432.265 44.6836 432.301 44.8252C432.337 44.9668 432.401 45.0997 432.489 45.2162C432.577 45.3327 432.688 45.4303 432.814 45.5034C432.941 45.5764 433.081 45.6234 433.225 45.6415C433.37 45.6597 433.518 45.6486 433.658 45.609C433.799 45.5693 433.93 45.502 434.044 45.4108C434.158 45.3196 434.253 45.2065 434.323 45.0782C436.898 40.6266 441.451 37.9688 446.5 37.9688C451.549 37.9688 456.102 40.6266 458.678 45.0782C458.747 45.2065 458.842 45.3196 458.956 45.4108C459.07 45.502 459.201 45.5693 459.342 45.609C459.483 45.6486 459.63 45.6597 459.775 45.6415C459.92 45.6234 460.059 45.5764 460.186 45.5034C460.312 45.4303 460.423 45.3327 460.511 45.2162C460.599 45.0997 460.663 44.9668 460.699 44.8252C460.735 44.6836 460.742 44.5363 460.72 44.3919C460.698 44.2475 460.648 44.1089 460.571 43.9844ZM438.844 28.1251C438.844 26.6108 439.293 25.1305 440.134 23.8715C440.975 22.6124 442.171 21.6311 443.57 21.0516C444.969 20.4721 446.509 20.3205 447.994 20.6159C449.479 20.9113 450.843 21.6405 451.914 22.7113C452.985 23.782 453.714 25.1462 454.009 26.6314C454.305 28.1166 454.153 29.656 453.574 31.055C452.994 32.454 452.013 33.6497 450.754 34.491C449.495 35.3323 448.014 35.7813 446.5 35.7813C444.47 35.7791 442.524 34.9718 441.089 33.5364C439.653 32.1011 438.846 30.155 438.844 28.1251Z" fill="black"/>
</svg>
