<svg width="503" height="65" viewBox="0 0 503 65" fill="none" xmlns="http://www.w3.org/2000/svg">
<rect width="504" height="65" transform="translate(-1)" fill="#E8E8E8"/>
<path d="M69.625 31.4063V44.5313C69.625 44.8214 69.5098 45.0996 69.3046 45.3047C69.0995 45.5098 68.8213 45.625 68.5312 45.625H60.875C60.5849 45.625 60.3067 45.5098 60.1016 45.3047C59.8965 45.0996 59.7812 44.8214 59.7812 44.5313V37.4219C59.7812 37.2769 59.7236 37.1378 59.6211 37.0352C59.5185 36.9326 59.3794 36.875 59.2344 36.875H53.7656C53.6206 36.875 53.4815 36.9326 53.3789 37.0352C53.2764 37.1378 53.2188 37.2769 53.2188 37.4219V44.5313C53.2188 44.8214 53.1035 45.0996 52.8984 45.3047C52.6933 45.5098 52.4151 45.625 52.125 45.625H44.4688C44.1787 45.625 43.9005 45.5098 43.6954 45.3047C43.4902 45.0996 43.375 44.8214 43.375 44.5313V31.4063C43.3753 30.8262 43.6059 30.27 44.0162 29.86L54.9537 18.9225C55.3639 18.5126 55.9201 18.2823 56.5 18.2823C57.0799 18.2823 57.6361 18.5126 58.0463 18.9225L68.9838 29.86C69.3941 30.27 69.6247 30.8262 69.625 31.4063Z" fill="black"/>
<path d="M167.649 44.8512L160.803 38.007C162.787 35.625 163.777 32.5697 163.566 29.4768C163.354 26.3839 161.959 23.4914 159.67 21.4011C157.38 19.3109 154.373 18.1837 151.274 18.2542C148.174 18.3246 145.221 19.5872 143.029 21.7793C140.837 23.9714 139.575 26.9243 139.504 30.0236C139.434 33.123 140.561 36.1301 142.651 38.4196C144.741 40.709 147.634 42.1045 150.727 42.3156C153.82 42.5268 156.875 41.5374 159.257 39.5533L166.101 46.3988C166.203 46.5005 166.323 46.5811 166.456 46.6361C166.589 46.6911 166.731 46.7194 166.875 46.7194C167.019 46.7194 167.161 46.6911 167.294 46.6361C167.427 46.5811 167.547 46.5005 167.649 46.3988C167.75 46.2972 167.831 46.1766 167.886 46.0438C167.941 45.911 167.969 45.7687 167.969 45.625C167.969 45.4813 167.941 45.339 167.886 45.2062C167.831 45.0734 167.75 44.9528 167.649 44.8512ZM141.719 30.3125C141.719 28.3656 142.296 26.4624 143.378 24.8436C144.459 23.2248 145.997 21.9631 147.795 21.2181C149.594 20.473 151.573 20.2781 153.483 20.6579C155.392 21.0377 157.146 21.9753 158.523 23.3519C159.9 24.7286 160.837 26.4826 161.217 28.3921C161.597 30.3016 161.402 32.2808 160.657 34.0795C159.912 35.8783 158.65 37.4156 157.031 38.4973C155.413 39.5789 153.509 40.1563 151.562 40.1563C148.953 40.1534 146.45 39.1153 144.605 37.2699C142.76 35.4245 141.722 32.9223 141.719 30.3125Z" fill="black"/>
<path d="M261.938 19.375H258.656V18.2812C258.656 17.9912 258.541 17.713 258.336 17.5079C258.131 17.3027 257.853 17.1875 257.562 17.1875C257.272 17.1875 256.994 17.3027 256.789 17.5079C256.584 17.713 256.469 17.9912 256.469 18.2812V19.375H245.531V18.2812C245.531 17.9912 245.416 17.713 245.211 17.5079C245.006 17.3027 244.728 17.1875 244.438 17.1875C244.147 17.1875 243.869 17.3027 243.664 17.5079C243.459 17.713 243.344 17.9912 243.344 18.2812V19.375H240.062C239.482 19.375 238.926 19.6055 238.516 20.0157C238.105 20.4259 237.875 20.9823 237.875 21.5625V43.4375C237.875 44.0177 238.105 44.5741 238.516 44.9843C238.926 45.3945 239.482 45.625 240.062 45.625H261.938C262.518 45.625 263.074 45.3945 263.484 44.9843C263.895 44.5741 264.125 44.0177 264.125 43.4375V21.5625C264.125 20.9823 263.895 20.4259 263.484 20.0157C263.074 19.6055 262.518 19.375 261.938 19.375ZM243.344 21.5625V22.6562C243.344 22.9463 243.459 23.2245 243.664 23.4296C243.869 23.6348 244.147 23.75 244.438 23.75C244.728 23.75 245.006 23.6348 245.211 23.4296C245.416 23.2245 245.531 22.9463 245.531 22.6562V21.5625H256.469V22.6562C256.469 22.9463 256.584 23.2245 256.789 23.4296C256.994 23.6348 257.272 23.75 257.562 23.75C257.853 23.75 258.131 23.6348 258.336 23.4296C258.541 23.2245 258.656 22.9463 258.656 22.6562V21.5625H261.938V25.9375H240.062V21.5625H243.344ZM261.938 43.4375H240.062V28.125H261.938V43.4375Z" fill="black"/>
<path d="M363.45 28.2973C363.314 27.8769 363.056 27.5064 362.709 27.2324C362.362 26.9585 361.941 26.7933 361.501 26.7578L353.434 26.107L350.32 18.5752C350.151 18.1648 349.865 17.8137 349.496 17.5667C349.128 17.3196 348.694 17.1877 348.251 17.1877C347.807 17.1877 347.373 17.3196 347.005 17.5667C346.637 17.8137 346.35 18.1648 346.181 18.5752L343.07 26.1057L334.999 26.7578C334.558 26.7951 334.137 26.9619 333.79 27.2372C333.443 27.5124 333.185 27.884 333.048 28.3053C332.912 28.7266 332.902 29.1788 333.021 29.6055C333.141 30.0321 333.383 30.414 333.718 30.7035L339.871 36.0123L337.996 43.9502C337.891 44.3814 337.917 44.8341 338.07 45.2507C338.223 45.6674 338.496 46.0292 338.855 46.2902C339.214 46.5513 339.642 46.6998 340.086 46.717C340.529 46.7341 340.968 46.6191 341.346 46.3865L348.25 42.1373L355.158 46.3865C355.537 46.6163 355.974 46.7291 356.416 46.7107C356.858 46.6923 357.285 46.5434 357.643 46.283C358.001 46.0225 358.273 45.662 358.426 45.2469C358.58 44.8318 358.607 44.3806 358.504 43.9502L356.623 36.0109L362.775 30.7021C363.113 30.4132 363.358 30.0304 363.478 29.6022C363.598 29.1741 363.588 28.72 363.45 28.2973ZM361.353 29.0451L354.695 34.7873C354.543 34.9182 354.43 35.0883 354.368 35.279C354.307 35.4697 354.299 35.6737 354.345 35.8687L356.379 44.4547C356.385 44.4665 356.385 44.4799 356.381 44.4921C356.376 44.5043 356.368 44.5144 356.356 44.5203C356.331 44.5394 356.325 44.5353 356.304 44.5203L348.823 39.9197C348.651 39.8138 348.452 39.7577 348.25 39.7577C348.048 39.7577 347.849 39.8138 347.677 39.9197L340.196 44.523C340.175 44.5353 340.17 44.5394 340.144 44.523C340.132 44.5172 340.124 44.5071 340.119 44.4949C340.115 44.4827 340.115 44.4693 340.121 44.4574L342.155 35.8715C342.201 35.6765 342.193 35.4724 342.132 35.2817C342.07 35.091 341.957 34.9209 341.805 34.79L335.147 29.0478C335.13 29.0342 335.115 29.0219 335.129 28.9795C335.143 28.9371 335.154 28.9426 335.174 28.9398L343.913 28.2344C344.114 28.2172 344.306 28.145 344.468 28.0259C344.63 27.9067 344.756 27.7452 344.832 27.559L348.198 19.4092C348.209 19.3859 348.213 19.375 348.246 19.375C348.279 19.375 348.283 19.3859 348.294 19.4092L351.668 27.559C351.745 27.7452 351.872 27.9066 352.035 28.0253C352.197 28.144 352.39 28.2154 352.591 28.2316L361.33 28.9371C361.35 28.9371 361.363 28.9371 361.375 28.9768C361.387 29.0164 361.375 29.0314 361.353 29.0451Z" fill="black"/>
<path d="M459.571 43.9844C457.489 40.3846 454.28 37.8033 450.535 36.5797C452.388 35.477 453.827 33.7967 454.632 31.797C455.437 29.7972 455.563 27.5885 454.991 25.5101C454.419 23.4316 453.181 21.5983 451.466 20.2917C449.752 18.9852 447.656 18.2775 445.5 18.2775C443.344 18.2775 441.248 18.9852 439.534 20.2917C437.819 21.5983 436.581 23.4316 436.009 25.5101C435.437 27.5885 435.563 29.7972 436.368 31.797C437.173 33.7967 438.612 35.477 440.465 36.5797C436.72 37.8019 433.511 40.3832 431.429 43.9844C431.353 44.1089 431.302 44.2474 431.28 44.3918C431.258 44.5362 431.265 44.6835 431.301 44.8251C431.337 44.9667 431.401 45.0996 431.489 45.2161C431.577 45.3326 431.688 45.4302 431.814 45.5033C431.941 45.5763 432.081 45.6233 432.225 45.6415C432.37 45.6596 432.518 45.6485 432.658 45.6089C432.799 45.5693 432.93 45.5019 433.044 45.4107C433.158 45.3196 433.253 45.2065 433.323 45.0781C435.898 40.6266 440.451 37.9687 445.5 37.9687C450.549 37.9687 455.102 40.6266 457.678 45.0781C457.747 45.2065 457.842 45.3196 457.956 45.4107C458.07 45.5019 458.201 45.5693 458.342 45.6089C458.483 45.6485 458.63 45.6596 458.775 45.6415C458.92 45.6233 459.059 45.5763 459.186 45.5033C459.312 45.4302 459.423 45.3326 459.511 45.2161C459.599 45.0996 459.663 44.9667 459.699 44.8251C459.735 44.6835 459.742 44.5362 459.72 44.3918C459.698 44.2474 459.648 44.1089 459.571 43.9844ZM437.844 28.125C437.844 26.6107 438.293 25.1305 439.134 23.8714C439.975 22.6123 441.171 21.631 442.57 21.0515C443.969 20.4721 445.509 20.3204 446.994 20.6159C448.479 20.9113 449.843 21.6405 450.914 22.7112C451.985 23.782 452.714 25.1462 453.009 26.6313C453.305 28.1165 453.153 29.6559 452.574 31.0549C451.994 32.4539 451.013 33.6497 449.754 34.4909C448.495 35.3322 447.014 35.7812 445.5 35.7812C443.47 35.7791 441.524 34.9717 440.089 33.5364C438.653 32.101 437.846 30.1549 437.844 28.125Z" fill="black"/>
</svg>
