<svg width="30" height="33" viewBox="0 0 30 33" fill="none" xmlns="http://www.w3.org/2000/svg">
<path d="M28.8749 8.77616C28.6027 8.9171 28.2857 8.94421 27.9936 8.85152C27.7014 8.75884 27.458 8.55394 27.3169 8.28186C26.2132 6.10159 24.5427 4.25884 22.4809 2.94721C22.3524 2.86617 22.2411 2.76061 22.1534 2.63656C22.0657 2.51251 22.0033 2.3724 21.9697 2.22424C21.9362 2.07607 21.9321 1.92274 21.9578 1.77301C21.9835 1.62329 22.0385 1.48008 22.1195 1.35159C22.2006 1.22309 22.3061 1.11182 22.4302 1.02412C22.5542 0.936421 22.6943 0.874013 22.8425 0.840461C22.9907 0.806908 23.144 0.802868 23.2937 0.828571C23.4435 0.854274 23.5867 0.909216 23.7152 0.990261C26.1181 2.52885 28.0693 4.67807 29.3692 7.21811C29.5102 7.49029 29.5373 7.8073 29.4446 8.09945C29.3519 8.39161 29.147 8.63501 28.8749 8.77616ZM1.66114 8.90624C1.87297 8.90615 2.0807 8.84787 2.26166 8.73776C2.44263 8.62766 2.58987 8.46995 2.68731 8.28186C3.79095 6.10159 5.46147 4.25884 7.52332 2.94721C7.78283 2.78354 7.96669 2.52347 8.03445 2.22424C8.10222 1.925 8.04833 1.6111 7.88465 1.35159C7.72097 1.09208 7.46091 0.908223 7.16167 0.840461C6.86244 0.772699 6.54854 0.826584 6.28903 0.990261C3.88605 2.52885 1.93485 4.67807 0.634965 7.21811C0.543676 7.39432 0.499278 7.59107 0.506043 7.78941C0.512809 7.98774 0.570511 8.181 0.673595 8.35059C0.77668 8.52017 0.921677 8.66036 1.09463 8.75768C1.26759 8.85499 1.46268 8.90615 1.66114 8.90624ZM28.5584 23.9288C28.7632 24.2801 28.8718 24.6792 28.8732 25.0858C28.8746 25.4924 28.7688 25.8922 28.5664 26.2449C28.3639 26.5976 28.0721 26.8906 27.7203 27.0945C27.3684 27.2984 26.9691 27.4059 26.5624 27.4062H20.6656C20.4002 28.7131 19.6911 29.8881 18.6586 30.732C17.6261 31.576 16.3335 32.037 14.9999 32.037C13.6664 32.037 12.3738 31.576 11.3413 30.732C10.3087 29.8881 9.59968 28.7131 9.3343 27.4062H3.43743C3.03103 27.4054 2.63203 27.2976 2.28061 27.0935C1.92918 26.8894 1.63775 26.5963 1.43567 26.2437C1.23358 25.8911 1.12798 25.4915 1.12951 25.0851C1.13103 24.6787 1.23962 24.2799 1.44434 23.9288C2.74657 21.6814 3.43743 18.4858 3.43743 14.6875C3.43743 11.6209 4.65561 8.67996 6.824 6.51157C8.99239 4.34318 11.9334 3.12499 14.9999 3.12499C18.0665 3.12499 21.0075 4.34318 23.1758 6.51157C25.3442 8.67996 26.5624 11.6209 26.5624 14.6875C26.5624 18.4843 27.2533 21.6799 28.5584 23.9288ZM18.2692 27.4062H11.7306C11.9702 28.0818 12.4131 28.6666 12.9986 29.0801C13.584 29.4937 14.2832 29.7157 14.9999 29.7157C15.7167 29.7157 16.4159 29.4937 17.0013 29.0801C17.5867 28.6666 18.0297 28.0818 18.2692 27.4062ZM26.5624 25.0937C25.0246 22.4532 24.2499 18.9526 24.2499 14.6875C24.2499 12.2342 23.2754 9.88146 21.5407 8.14675C19.806 6.41204 17.4532 5.43749 14.9999 5.43749C12.5467 5.43749 10.1939 6.41204 8.45919 8.14675C6.72448 9.88146 5.74993 12.2342 5.74993 14.6875C5.74993 18.9541 4.97235 22.4546 3.43743 25.0937H26.5624Z" fill="black"/>
</svg>
