<svg width="10" height="6" viewBox="0 0 10 6" fill="none" xmlns="http://www.w3.org/2000/svg">
<path d="M9.8667 1.21141L5.32157 5.37781C5.27936 5.41654 5.22923 5.44727 5.17405 5.46824C5.11887 5.48921 5.05973 5.5 5 5.5C4.94027 5.5 4.88113 5.48921 4.82595 5.46824C4.77077 5.44727 4.72064 5.41654 4.67843 5.37781L0.133303 1.21141C0.069666 1.15314 0.0263202 1.07888 0.00875313 0.998012C-0.00881397 0.917149 0.000187483 0.833325 0.034618 0.757154C0.0690484 0.680983 0.12736 0.615889 0.20217 0.570112C0.27698 0.524336 0.364925 0.499935 0.454871 0.5H9.54513C9.63507 0.499935 9.72302 0.524336 9.79783 0.570112C9.87264 0.615889 9.93095 0.680983 9.96538 0.757154C9.99981 0.833325 10.0088 0.917149 9.99125 0.998012C9.97368 1.07888 9.93033 1.15314 9.8667 1.21141Z" fill="white"/>
</svg>
