<svg width="32" height="30" viewBox="0 0 32 30" fill="none" xmlns="http://www.w3.org/2000/svg">
<path d="M30.8753 28.1407C28.674 24.3351 25.2819 21.6064 21.3232 20.3128C23.2813 19.1471 24.8027 17.3709 25.6537 15.2568C26.5046 13.1428 26.6381 10.8079 26.0335 8.61066C25.429 6.41343 24.12 4.47538 22.3074 3.09414C20.4948 1.7129 18.279 0.964844 16.0001 0.964844C13.7212 0.964844 11.5054 1.7129 9.69279 3.09414C7.88022 4.47538 6.57117 6.41343 5.96666 8.61066C5.36215 10.8079 5.49561 13.1428 6.34655 15.2568C7.19749 17.3709 8.71886 19.1471 10.677 20.3128C6.7183 21.6049 3.32616 24.3337 1.12495 28.1407C1.04422 28.2723 0.99068 28.4187 0.967477 28.5714C0.944273 28.724 0.951878 28.8798 0.989844 29.0294C1.02781 29.1791 1.09537 29.3197 1.18853 29.4428C1.28169 29.5659 1.39857 29.6691 1.53227 29.7464C1.66597 29.8236 1.81379 29.8733 1.967 29.8924C2.1202 29.9116 2.2757 29.8999 2.42431 29.858C2.57292 29.8161 2.71164 29.7449 2.83227 29.6485C2.95291 29.5521 3.05302 29.4326 3.1267 29.2969C5.84967 24.591 10.6626 21.7813 16.0001 21.7813C21.3376 21.7813 26.1505 24.591 28.8735 29.2969C28.9472 29.4326 29.0473 29.5521 29.1679 29.6485C29.2886 29.7449 29.4273 29.8161 29.5759 29.858C29.7245 29.8999 29.88 29.9116 30.0332 29.8924C30.1864 29.8733 30.3342 29.8236 30.4679 29.7464C30.6016 29.6691 30.7185 29.5659 30.8117 29.4428C30.9048 29.3197 30.9724 29.1791 31.0104 29.0294C31.0483 28.8798 31.0559 28.724 31.0327 28.5714C31.0095 28.4187 30.956 28.2723 30.8753 28.1407ZM7.90635 11.375C7.90635 9.77423 8.38104 8.20939 9.27039 6.87838C10.1597 5.54737 11.4238 4.50997 12.9028 3.89738C14.3817 3.28478 16.0091 3.1245 17.5791 3.43679C19.1491 3.74909 20.5913 4.51995 21.7232 5.65188C22.8552 6.78381 23.626 8.22598 23.9383 9.79601C24.2506 11.366 24.0903 12.9934 23.4778 14.4724C22.8652 15.9513 21.8278 17.2154 20.4967 18.1047C19.1657 18.9941 17.6009 19.4688 16.0001 19.4688C13.8542 19.4665 11.7969 18.613 10.2795 17.0956C8.76212 15.5783 7.90865 13.5209 7.90635 11.375Z" fill="black"/>
</svg>
