<svg width="130" height="40" viewBox="0 0 130 40" fill="none" xmlns="http://www.w3.org/2000/svg">
<rect width="130" height="40" fill="white"/>
<rect width="40" height="40" rx="20" fill="#D9D9D9"/>
<path d="M29.501 23.7041C28.6533 22.2461 28.2031 20.1533 28.2031 17.6562C28.2031 15.4806 27.3389 13.3941 25.8005 11.8558C24.2621 10.3174 22.1756 9.45313 20 9.45312C17.8244 9.45313 15.7379 10.3174 14.1995 11.8558C12.6611 13.3941 11.7969 15.4806 11.7969 17.6562C11.7969 20.1543 11.3486 22.2461 10.501 23.7041C10.328 24.0015 10.2363 24.3391 10.2351 24.6832C10.2339 25.0272 10.3232 25.3655 10.4941 25.6641C10.6639 25.9628 10.9104 26.2108 11.2081 26.3825C11.5058 26.5542 11.8439 26.6433 12.1875 26.6406H15.7207C15.8176 27.7086 16.3104 28.7018 17.1022 29.425C17.894 30.1482 18.9276 30.5492 20 30.5492C21.0724 30.5492 22.106 30.1482 22.8978 29.425C23.6896 28.7018 24.1824 27.7086 24.2793 26.6406H27.8125C28.1556 26.6428 28.4931 26.5534 28.7902 26.3817C29.0874 26.2101 29.3334 25.9624 29.5029 25.6641C29.6746 25.3659 29.7647 25.0278 29.7644 24.6838C29.764 24.3398 29.6732 24.0019 29.501 23.7041ZM20 28.2031C19.5497 28.2032 19.1133 28.0477 18.7645 27.763C18.4157 27.4783 18.176 27.0818 18.0859 26.6406H21.9141C21.824 27.0818 21.5843 27.4783 21.2355 27.763C20.8867 28.0477 20.4503 28.2032 20 28.2031ZM12.8379 24.2969C13.7021 22.5391 14.1406 20.3066 14.1406 17.6562C14.1406 16.1022 14.7579 14.6119 15.8568 13.513C16.9556 12.4142 18.446 11.7969 20 11.7969C21.554 11.7969 23.0444 12.4142 24.1432 13.513C25.242 14.6119 25.8594 16.1022 25.8594 17.6562C25.8594 20.3057 26.2969 22.5391 27.1611 24.2969H12.8379Z" fill="#1A1A1A"/>
<rect x="45" width="40" height="40" rx="20" fill="#D9D9D9"/>
<path d="M74.375 11.7969H55.625C55.3142 11.7969 55.0161 11.9203 54.7964 12.1401C54.5766 12.3599 54.4531 12.6579 54.4531 12.9688V26.25C54.4531 26.768 54.6589 27.2648 55.0252 27.6311C55.3915 27.9974 55.8882 28.2031 56.4062 28.2031H73.5938C74.1118 28.2031 74.6085 27.9974 74.9748 27.6311C75.3411 27.2648 75.5469 26.768 75.5469 26.25V12.9688C75.5469 12.6579 75.4234 12.3599 75.2036 12.1401C74.9839 11.9203 74.6858 11.7969 74.375 11.7969ZM71.3623 14.1406L65 19.9727L58.6377 14.1406H71.3623ZM56.7969 25.8594V15.6328L64.208 22.4268C64.4242 22.6249 64.7067 22.7349 65 22.7349C65.2933 22.7349 65.5758 22.6249 65.792 22.4268L73.2031 15.6328V25.8594H56.7969Z" fill="#1A1A1A"/>
<rect x="90" width="40" height="40" rx="20" fill="#D9D9D9"/>
<path d="M110 14.9219C108.996 14.9219 108.014 15.2197 107.179 15.7777C106.344 16.3357 105.693 17.1288 105.308 18.0567C104.924 18.9846 104.823 20.0056 105.019 20.9907C105.215 21.9758 105.699 22.8806 106.409 23.5908C107.119 24.301 108.024 24.7846 109.009 24.9806C109.994 25.1765 111.015 25.0759 111.943 24.6916C112.871 24.3072 113.664 23.6564 114.222 22.8213C114.78 21.9862 115.078 21.0044 115.078 20C115.076 18.6537 114.541 17.3629 113.589 16.4109C112.637 15.4589 111.346 14.9234 110 14.9219ZM110 22.7344C109.459 22.7344 108.93 22.574 108.481 22.2736C108.031 21.9731 107.681 21.546 107.474 21.0464C107.267 20.5468 107.213 19.997 107.318 19.4666C107.424 18.9361 107.684 18.4489 108.066 18.0665C108.449 17.6841 108.936 17.4237 109.466 17.3182C109.997 17.2127 110.547 17.2668 111.046 17.4738C111.546 17.6807 111.973 18.0312 112.273 18.4809C112.574 18.9305 112.734 19.4592 112.734 20C112.734 20.7252 112.446 21.4207 111.933 21.9335C111.421 22.4463 110.725 22.7344 110 22.7344ZM121.119 17.8936C121.086 17.7285 121.018 17.5725 120.919 17.4362C120.82 17.2998 120.693 17.1864 120.547 17.1035L117.833 15.5557L117.822 12.4981C117.822 12.3284 117.784 12.1609 117.712 12.0071C117.641 11.8534 117.537 11.717 117.407 11.6074C116.313 10.6821 115.054 9.97263 113.696 9.51661C113.541 9.46435 113.377 9.44509 113.214 9.46006C113.052 9.47503 112.894 9.5239 112.751 9.60352L110 11.1397L107.249 9.60255C107.106 9.52248 106.948 9.47329 106.785 9.45815C106.621 9.44301 106.457 9.46226 106.302 9.51465C104.943 9.97257 103.684 10.684 102.591 11.6113C102.462 11.7208 102.358 11.8569 102.286 12.0103C102.215 12.1637 102.177 12.3308 102.177 12.5L102.163 15.5606L99.453 17.1045C99.3064 17.1877 99.1795 17.3015 99.0809 17.4382C98.9823 17.5748 98.9144 17.7312 98.8817 17.8965C98.6058 19.2863 98.6058 20.7167 98.8817 22.1065C98.9147 22.2714 98.9827 22.4274 99.0813 22.5637C99.1799 22.7 99.3067 22.8135 99.453 22.8965L102.17 24.4443L102.181 27.502C102.181 27.6716 102.219 27.8391 102.29 27.9929C102.362 28.1466 102.466 28.283 102.596 28.3926C103.689 29.3179 104.948 30.0274 106.307 30.4834C106.461 30.5357 106.626 30.5549 106.788 30.54C106.951 30.525 107.109 30.4761 107.252 30.3965L110 28.8604L112.748 30.3975C112.891 30.4775 113.049 30.5267 113.212 30.5419C113.375 30.557 113.54 30.5378 113.695 30.4854C115.054 30.0274 116.313 29.316 117.406 28.3887C117.535 28.2792 117.639 28.1431 117.711 27.9897C117.782 27.8363 117.819 27.6692 117.82 27.5L117.834 24.4395L120.55 22.8955C120.696 22.8123 120.823 22.6985 120.922 22.5619C121.02 22.4252 121.088 22.2688 121.121 22.1035C121.396 20.7136 121.396 19.2832 121.119 17.8936ZM118.909 21.1338L116.284 22.626C116.098 22.7317 115.944 22.8868 115.84 23.0742C115.787 23.1719 115.731 23.2627 115.674 23.3555C115.558 23.5403 115.496 23.7537 115.495 23.9717L115.481 26.9336C114.85 27.409 114.158 27.7988 113.424 28.0928L110.772 26.6094C110.598 26.5115 110.4 26.46 110.2 26.46H110.172C110.06 26.46 109.947 26.46 109.836 26.46C109.626 26.455 109.419 26.5059 109.236 26.6074L106.582 28.0879C105.847 27.7954 105.153 27.4073 104.519 26.9336L104.509 23.9805C104.508 23.7621 104.446 23.5483 104.33 23.3633C104.273 23.2715 104.217 23.1768 104.164 23.082C104.06 22.8958 103.906 22.7417 103.721 22.6367L101.094 21.1357C100.992 20.3827 100.992 19.6193 101.094 18.8662L103.719 17.374C103.905 17.2683 104.058 17.1136 104.163 16.9268C104.216 16.8291 104.271 16.7373 104.329 16.6445C104.445 16.4598 104.507 16.2464 104.508 16.0283L104.518 13.0664C105.15 12.5924 105.842 12.2039 106.576 11.9111L109.227 13.3945C109.411 13.4973 109.618 13.5486 109.828 13.543C109.939 13.543 110.053 13.543 110.164 13.543C110.373 13.5479 110.58 13.497 110.764 13.3955L113.418 11.9121C114.153 12.2047 114.847 12.5928 115.48 13.0664L115.491 16.0195C115.492 16.2379 115.554 16.4517 115.67 16.6367C115.726 16.7285 115.783 16.8232 115.836 16.918C115.94 17.1042 116.093 17.2583 116.279 17.3633L118.906 18.8604C119.01 19.6146 119.01 20.3793 118.909 21.1338Z" fill="#1A1A1A"/>
</svg>
