<svg width="504" height="65" viewBox="0 0 504 65" fill="none" xmlns="http://www.w3.org/2000/svg">
<rect width="504" height="65" fill="#E8E8E8"/>
<path d="M70.625 31.4062V44.5312C70.625 44.8213 70.5098 45.0995 70.3046 45.3046C70.0995 45.5097 69.8213 45.625 69.5312 45.625H61.875C61.5849 45.625 61.3067 45.5097 61.1016 45.3046C60.8965 45.0995 60.7812 44.8213 60.7812 44.5312V37.4218C60.7812 37.2768 60.7236 37.1377 60.6211 37.0351C60.5185 36.9326 60.3794 36.875 60.2344 36.875H54.7656C54.6206 36.875 54.4815 36.9326 54.3789 37.0351C54.2764 37.1377 54.2188 37.2768 54.2188 37.4218V44.5312C54.2188 44.8213 54.1035 45.0995 53.8984 45.3046C53.6933 45.5097 53.4151 45.625 53.125 45.625H45.4688C45.1787 45.625 44.9005 45.5097 44.6954 45.3046C44.4902 45.0995 44.375 44.8213 44.375 44.5312V31.4062C44.3753 30.8262 44.6059 30.27 45.0162 29.8599L55.9537 18.9224C56.3639 18.5125 56.9201 18.2822 57.5 18.2822C58.0799 18.2822 58.6361 18.5125 59.0463 18.9224L69.9838 29.8599C70.3941 30.27 70.6247 30.8262 70.625 31.4062Z" fill="black"/>
<path d="M168.649 44.8511L161.803 38.007C163.787 35.6249 164.777 32.5697 164.566 29.4767C164.354 26.3838 162.959 23.4914 160.67 21.4011C158.38 19.3108 155.373 18.1837 152.274 18.2541C149.174 18.3245 146.221 19.5871 144.029 21.7793C141.837 23.9714 140.575 26.9242 140.504 30.0236C140.434 33.1229 141.561 36.1301 143.651 38.4195C145.741 40.709 148.634 42.1044 151.727 42.3156C154.82 42.5267 157.875 41.5374 160.257 39.5533L167.101 46.3988C167.203 46.5004 167.323 46.581 167.456 46.636C167.589 46.691 167.731 46.7193 167.875 46.7193C168.019 46.7193 168.161 46.691 168.294 46.636C168.427 46.581 168.547 46.5004 168.649 46.3988C168.75 46.2972 168.831 46.1765 168.886 46.0437C168.941 45.911 168.969 45.7687 168.969 45.6249C168.969 45.4812 168.941 45.3389 168.886 45.2062C168.831 45.0734 168.75 44.9527 168.649 44.8511ZM142.719 30.3124C142.719 28.3655 143.296 26.4623 144.378 24.8436C145.459 23.2248 146.997 21.9631 148.795 21.218C150.594 20.473 152.573 20.278 154.483 20.6578C156.392 21.0377 158.146 21.9752 159.523 23.3519C160.9 24.7285 161.837 26.4825 162.217 28.392C162.597 30.3015 162.402 32.2808 161.657 34.0795C160.912 35.8782 159.65 37.4156 158.031 38.4972C156.413 39.5789 154.509 40.1562 152.562 40.1562C149.953 40.1533 147.45 39.1153 145.605 37.2698C143.76 35.4244 142.722 32.9223 142.719 30.3124Z" fill="black"/>
<path d="M262.938 19.375H259.656V18.2812C259.656 17.9912 259.541 17.713 259.336 17.5079C259.131 17.3027 258.853 17.1875 258.562 17.1875C258.272 17.1875 257.994 17.3027 257.789 17.5079C257.584 17.713 257.469 17.9912 257.469 18.2812V19.375H246.531V18.2812C246.531 17.9912 246.416 17.713 246.211 17.5079C246.006 17.3027 245.728 17.1875 245.438 17.1875C245.147 17.1875 244.869 17.3027 244.664 17.5079C244.459 17.713 244.344 17.9912 244.344 18.2812V19.375H241.062C240.482 19.375 239.926 19.6055 239.516 20.0157C239.105 20.4259 238.875 20.9823 238.875 21.5625V43.4375C238.875 44.0177 239.105 44.5741 239.516 44.9843C239.926 45.3945 240.482 45.625 241.062 45.625H262.938C263.518 45.625 264.074 45.3945 264.484 44.9843C264.895 44.5741 265.125 44.0177 265.125 43.4375V21.5625C265.125 20.9823 264.895 20.4259 264.484 20.0157C264.074 19.6055 263.518 19.375 262.938 19.375ZM244.344 21.5625V22.6562C244.344 22.9463 244.459 23.2245 244.664 23.4296C244.869 23.6348 245.147 23.75 245.438 23.75C245.728 23.75 246.006 23.6348 246.211 23.4296C246.416 23.2245 246.531 22.9463 246.531 22.6562V21.5625H257.469V22.6562C257.469 22.9463 257.584 23.2245 257.789 23.4296C257.994 23.6348 258.272 23.75 258.562 23.75C258.853 23.75 259.131 23.6348 259.336 23.4296C259.541 23.2245 259.656 22.9463 259.656 22.6562V21.5625H262.938V25.9375H241.062V21.5625H244.344ZM262.938 43.4375H241.062V28.125H262.938V43.4375Z" fill="black"/>
<path d="M364.45 28.2973C364.314 27.8769 364.056 27.5064 363.709 27.2325C363.362 26.9585 362.941 26.7934 362.501 26.7579L354.434 26.1071L351.32 18.5752C351.151 18.1648 350.865 17.8138 350.496 17.5667C350.128 17.3197 349.694 17.1877 349.251 17.1877C348.807 17.1877 348.373 17.3197 348.005 17.5667C347.637 17.8138 347.35 18.1648 347.181 18.5752L344.07 26.1057L335.999 26.7579C335.558 26.7952 335.137 26.9619 334.79 27.2372C334.443 27.5125 334.185 27.884 334.048 28.3053C333.912 28.7266 333.902 29.1789 334.021 29.6055C334.141 30.0321 334.383 30.4141 334.718 30.7036L340.871 36.0124L338.996 43.9503C338.891 44.3815 338.917 44.8342 339.07 45.2508C339.223 45.6674 339.496 46.0292 339.855 46.2903C340.214 46.5513 340.642 46.6999 341.086 46.717C341.529 46.7342 341.968 46.6191 342.346 46.3866L349.25 42.1374L356.158 46.3866C356.537 46.6164 356.974 46.7292 357.416 46.7108C357.858 46.6923 358.285 46.5435 358.643 46.283C359.001 46.0225 359.273 45.662 359.426 45.2469C359.58 44.8318 359.607 44.3807 359.504 43.9503L357.623 36.011L363.775 30.7022C364.113 30.4132 364.358 30.0304 364.478 29.6023C364.598 29.1742 364.588 28.72 364.45 28.2973ZM362.353 29.0452L355.695 34.7874C355.543 34.9182 355.43 35.0883 355.368 35.279C355.307 35.4698 355.299 35.6738 355.345 35.8688L357.379 44.4547C357.385 44.4666 357.385 44.48 357.381 44.4922C357.376 44.5044 357.368 44.5145 357.356 44.5204C357.331 44.5395 357.325 44.5354 357.304 44.5204L349.823 39.9198C349.651 39.8139 349.452 39.7578 349.25 39.7578C349.048 39.7578 348.849 39.8139 348.677 39.9198L341.196 44.5231C341.175 44.5354 341.17 44.5395 341.144 44.5231C341.132 44.5172 341.124 44.5071 341.119 44.4949C341.115 44.4827 341.115 44.4693 341.121 44.4575L343.155 35.8715C343.201 35.6765 343.193 35.4725 343.132 35.2818C343.07 35.0911 342.957 34.921 342.805 34.7901L336.147 29.0479C336.13 29.0342 336.115 29.0219 336.129 28.9795C336.143 28.9372 336.154 28.9426 336.174 28.9399L344.913 28.2344C345.114 28.2172 345.306 28.1451 345.468 28.0259C345.63 27.9068 345.756 27.7452 345.832 27.559L349.198 19.4092C349.209 19.386 349.213 19.3751 349.246 19.3751C349.279 19.3751 349.283 19.386 349.294 19.4092L352.668 27.559C352.745 27.7453 352.872 27.9067 353.035 28.0254C353.197 28.1441 353.39 28.2155 353.591 28.2317L362.33 28.9372C362.35 28.9372 362.363 28.9372 362.375 28.9768C362.387 29.0165 362.375 29.0315 362.353 29.0452Z" fill="black"/>
<path d="M460.571 43.9844C458.489 40.3846 455.28 37.8034 451.535 36.5797C453.388 35.4771 454.827 33.7968 455.632 31.797C456.437 29.7973 456.563 27.5886 455.991 25.5101C455.419 23.4317 454.181 21.5984 452.466 20.2918C450.752 18.9852 448.656 18.2776 446.5 18.2776C444.344 18.2776 442.248 18.9852 440.534 20.2918C438.819 21.5984 437.581 23.4317 437.009 25.5101C436.437 27.5886 436.563 29.7973 437.368 31.797C438.173 33.7968 439.612 35.4771 441.465 36.5797C437.72 37.802 434.511 40.3833 432.429 43.9844C432.353 44.1089 432.302 44.2475 432.28 44.3919C432.258 44.5363 432.265 44.6836 432.301 44.8252C432.337 44.9668 432.401 45.0997 432.489 45.2162C432.577 45.3327 432.688 45.4303 432.814 45.5034C432.941 45.5764 433.081 45.6234 433.225 45.6415C433.37 45.6597 433.518 45.6486 433.658 45.609C433.799 45.5693 433.93 45.502 434.044 45.4108C434.158 45.3196 434.253 45.2065 434.323 45.0782C436.898 40.6266 441.451 37.9688 446.5 37.9688C451.549 37.9688 456.102 40.6266 458.678 45.0782C458.747 45.2065 458.842 45.3196 458.956 45.4108C459.07 45.502 459.201 45.5693 459.342 45.609C459.483 45.6486 459.63 45.6597 459.775 45.6415C459.92 45.6234 460.059 45.5764 460.186 45.5034C460.312 45.4303 460.423 45.3327 460.511 45.2162C460.599 45.0997 460.663 44.9668 460.699 44.8252C460.735 44.6836 460.742 44.5363 460.72 44.3919C460.698 44.2475 460.648 44.1089 460.571 43.9844ZM438.844 28.1251C438.844 26.6108 439.293 25.1305 440.134 23.8715C440.975 22.6124 442.171 21.6311 443.57 21.0516C444.969 20.4721 446.509 20.3205 447.994 20.6159C449.479 20.9113 450.843 21.6405 451.914 22.7113C452.985 23.782 453.714 25.1462 454.009 26.6314C454.305 28.1166 454.153 29.656 453.574 31.055C452.994 32.454 452.013 33.6497 450.754 34.491C449.495 35.3323 448.014 35.7813 446.5 35.7813C444.47 35.7791 442.524 34.9718 441.089 33.5364C439.653 32.1011 438.846 30.155 438.844 28.1251Z" fill="black"/>
</svg>
