<svg width="11" height="6" viewBox="0 0 11 6" fill="none" xmlns="http://www.w3.org/2000/svg">
<path d="M10.3667 0.853694L5.82157 5.85337C5.77936 5.89985 5.72923 5.93673 5.67405 5.96189C5.61887 5.98705 5.55973 6 5.5 6C5.44027 6 5.38113 5.98705 5.32595 5.96189C5.27077 5.93673 5.22064 5.89985 5.17843 5.85337L0.633303 0.853694C0.569666 0.783771 0.52632 0.69465 0.508753 0.597614C0.491186 0.500578 0.500187 0.39999 0.534618 0.308585C0.569048 0.217179 0.62736 0.139066 0.70217 0.0841345C0.77698 0.0292027 0.864925 -7.77087e-05 0.954871 1.5489e-07H10.0451C10.1351 -7.77087e-05 10.223 0.0292027 10.2978 0.0841345C10.3726 0.139066 10.431 0.217179 10.4654 0.308585C10.4998 0.39999 10.5088 0.500578 10.4912 0.597614C10.4737 0.69465 10.4303 0.783771 10.3667 0.853694Z" fill="#1A1A1A"/>
</svg>
