<svg width="28" height="28" viewBox="0 0 28 28" fill="none" xmlns="http://www.w3.org/2000/svg">
<path d="M8.21875 9.375C8.21875 9.06834 8.34057 8.77425 8.55741 8.55741C8.77425 8.34057 9.06834 8.21875 9.375 8.21875H18.625C18.9317 8.21875 19.2258 8.34057 19.4426 8.55741C19.6594 8.77425 19.7812 9.06834 19.7812 9.375C19.7812 9.68166 19.6594 9.97575 19.4426 10.1926C19.2258 10.4094 18.9317 10.5312 18.625 10.5312H9.375C9.06834 10.5312 8.77425 10.4094 8.55741 10.1926C8.34057 9.97575 8.21875 9.68166 8.21875 9.375ZM9.375 15.1562H18.625C18.9317 15.1562 19.2258 15.0344 19.4426 14.8176C19.6594 14.6008 19.7812 14.3067 19.7812 14C19.7812 13.6933 19.6594 13.3992 19.4426 13.1824C19.2258 12.9656 18.9317 12.8438 18.625 12.8438H9.375C9.06834 12.8438 8.77425 12.9656 8.55741 13.1824C8.34057 13.3992 8.21875 13.6933 8.21875 14C8.21875 14.3067 8.34057 14.6008 8.55741 14.8176C8.77425 15.0344 9.06834 15.1562 9.375 15.1562ZM14 17.4688H9.375C9.06834 17.4688 8.77425 17.5906 8.55741 17.8074C8.34057 18.0242 8.21875 18.3183 8.21875 18.625C8.21875 18.9317 8.34057 19.2258 8.55741 19.4426C8.77425 19.6594 9.06834 19.7812 9.375 19.7812H14C14.3067 19.7812 14.6008 19.6594 14.8176 19.4426C15.0344 19.2258 15.1562 18.9317 15.1562 18.625C15.1562 18.3183 15.0344 18.0242 14.8176 17.8074C14.6008 17.5906 14.3067 17.4688 14 17.4688ZM27.875 2.4375V18.1466C27.876 18.4504 27.8165 18.7514 27.7002 19.032C27.5838 19.3126 27.4128 19.5673 27.1971 19.7812L19.7812 27.1971C19.5673 27.4128 19.3126 27.5838 19.032 27.7002C18.7514 27.8165 18.4504 27.876 18.1466 27.875H2.4375C1.82419 27.875 1.23599 27.6314 0.802315 27.1977C0.368638 26.764 0.125 26.1758 0.125 25.5625V2.4375C0.125 1.82419 0.368638 1.23599 0.802315 0.802315C1.23599 0.368638 1.82419 0.125 2.4375 0.125H25.5625C26.1758 0.125 26.764 0.368638 27.1977 0.802315C27.6314 1.23599 27.875 1.82419 27.875 2.4375ZM2.4375 25.5625H17.4688V18.625C17.4688 18.3183 17.5906 18.0242 17.8074 17.8074C18.0242 17.5906 18.3183 17.4688 18.625 17.4688H25.5625V2.4375H2.4375V25.5625ZM19.7812 19.7812V23.9293L23.9279 19.7812H19.7812Z" fill="black"/>
</svg>
