<svg width="26" height="26" viewBox="0 0 26 26" fill="none" xmlns="http://www.w3.org/2000/svg">
<path d="M17.6875 11.125C17.6875 12.4229 17.3027 13.6917 16.5816 14.7709C15.8605 15.8501 14.8355 16.6912 13.6364 17.1879C12.4373 17.6846 11.1178 17.8146 9.84476 17.5614C8.57176 17.3081 7.40243 16.6831 6.48465 15.7653C5.56687 14.8476 4.94185 13.6782 4.68863 12.4052C4.43542 11.1322 4.56538 9.81274 5.06208 8.6136C5.55878 7.41446 6.39991 6.38954 7.47911 5.66844C8.5583 4.94734 9.8271 4.56246 11.125 4.56246C12.8655 4.56246 14.5347 5.25386 15.7654 6.48457C16.9961 7.71528 17.6875 9.38448 17.6875 11.125ZM24.9133 24.9132C24.8262 25.0004 24.7229 25.0696 24.609 25.1167C24.4952 25.1639 24.3732 25.1882 24.25 25.1882C24.1268 25.1882 24.0048 25.1639 23.891 25.1167C23.7772 25.0696 23.6738 25.0004 23.5868 24.9132L17.7203 19.0457C15.6802 20.7429 13.0644 21.5883 10.4168 21.4061C7.76929 21.2238 5.29392 20.028 3.50561 18.0672C1.7173 16.1064 0.753708 13.5317 0.815279 10.8787C0.87685 8.22558 1.95884 5.69835 3.83619 3.82266C5.71353 1.94697 8.24171 0.867218 10.8949 0.807991C13.548 0.748765 16.1218 1.71463 18.081 3.50467C20.0402 5.29472 21.2339 7.77114 21.4138 10.4188C21.5937 13.0665 20.7459 15.6817 19.0469 17.7203L24.9133 23.5867C25.0005 23.6737 25.0696 23.7771 25.1168 23.891C25.164 24.0048 25.1883 24.1268 25.1883 24.25C25.1883 24.3732 25.164 24.4952 25.1168 24.609C25.0696 24.7228 25.0005 24.8262 24.9133 24.9132ZM11.125 19.5625C12.7938 19.5625 14.4251 19.0676 15.8127 18.1405C17.2002 17.2134 18.2817 15.8956 18.9203 14.3539C19.5589 12.8121 19.726 11.1156 19.4004 9.47889C19.0748 7.84217 18.2713 6.33875 17.0912 5.15875C15.9112 3.97874 14.4078 3.17515 12.7711 2.84958C11.1344 2.52402 9.4379 2.69111 7.89614 3.32973C6.35439 3.96834 5.03664 5.0498 4.10951 6.43734C3.18239 7.82488 2.68754 9.45618 2.68754 11.125C2.69002 13.362 3.57976 15.5066 5.16156 17.0884C6.74336 18.6702 8.88803 19.56 11.125 19.5625Z" fill="#1A1A1A"/>
</svg>
