<svg width="24" height="22" viewBox="0 0 24 22" fill="none" xmlns="http://www.w3.org/2000/svg">
<path d="M11.9999 5.92187C10.9955 5.92187 10.0137 6.21969 9.17863 6.77768C8.34354 7.33568 7.69266 8.12877 7.30831 9.05668C6.92396 9.98458 6.82339 11.0056 7.01934 11.9907C7.21528 12.9757 7.69892 13.8806 8.40911 14.5908C9.1193 15.301 10.0241 15.7846 11.0092 15.9805C11.9943 16.1765 13.0153 16.0759 13.9432 15.6916C14.8711 15.3072 15.6642 14.6563 16.2222 13.8212C16.7802 12.9862 17.078 12.0043 17.078 11C17.0765 9.65366 16.5409 8.36292 15.5889 7.41093C14.637 6.45893 13.3462 5.92342 11.9999 5.92187ZM11.9999 13.7344C11.4591 13.7344 10.9304 13.574 10.4807 13.2735C10.0311 12.9731 9.68061 12.546 9.47365 12.0464C9.26669 11.5467 9.21254 10.997 9.31805 10.4665C9.42356 9.93612 9.68398 9.4489 10.0664 9.0665C10.4488 8.68409 10.936 8.42366 11.4664 8.31816C11.9969 8.21265 12.5466 8.2668 13.0463 8.47376C13.5459 8.68072 13.973 9.03119 14.2734 9.48085C14.5739 9.93052 14.7343 10.4592 14.7343 11C14.7343 11.7252 14.4462 12.4207 13.9334 12.9335C13.4206 13.4463 12.7251 13.7344 11.9999 13.7344ZM23.119 8.89355C23.086 8.72848 23.0178 8.57248 22.919 8.43615C22.8203 8.29982 22.6933 8.18636 22.5468 8.10351L19.8329 6.55566L19.8222 3.49804C19.8216 3.32839 19.7841 3.1609 19.7125 3.00713C19.6408 2.85335 19.5366 2.71698 19.4071 2.60741C18.3135 1.6821 17.0542 0.972617 15.6962 0.516593C15.5413 0.464337 15.3771 0.445075 15.2143 0.460043C15.0515 0.475012 14.8937 0.52388 14.7509 0.603507L11.9999 2.13964L9.24891 0.60253C9.10594 0.522466 8.94776 0.473276 8.7846 0.458137C8.62143 0.442998 8.45691 0.462246 8.30164 0.514639C6.9432 0.972559 5.68396 1.68403 4.59071 2.61132C4.46161 2.72076 4.35775 2.85687 4.28627 3.01027C4.2148 3.16368 4.1774 3.33075 4.17664 3.49999L4.16297 6.56054L1.45301 8.10448C1.30644 8.18765 1.17953 8.30146 1.08094 8.43814C0.982349 8.57481 0.914398 8.73115 0.881721 8.89648C0.605833 10.2862 0.605833 11.7167 0.881721 13.1064C0.914657 13.2714 0.982728 13.4274 1.08131 13.5637C1.17988 13.7 1.30666 13.8135 1.45301 13.8965L4.16981 15.4443L4.18055 18.5019C4.18114 18.6716 4.21856 18.8391 4.29022 18.9929C4.36187 19.1466 4.46606 19.283 4.59559 19.3926C5.68924 20.3179 6.94847 21.0274 8.30653 21.4834C8.46144 21.5356 8.62557 21.5549 8.78838 21.5399C8.95118 21.525 9.10905 21.4761 9.25184 21.3965L11.9999 19.8603L14.7479 21.3975C14.8909 21.4775 15.0491 21.5267 15.2122 21.5418C15.3754 21.557 15.5399 21.5377 15.6952 21.4853C17.0536 21.0274 18.3129 20.316 19.4061 19.3887C19.5352 19.2792 19.6391 19.1431 19.7106 18.9897C19.782 18.8363 19.8194 18.6692 19.8202 18.5L19.8339 15.4394L22.5497 13.8955C22.6963 13.8123 22.8232 13.6985 22.9218 13.5618C23.0204 13.4252 23.0883 13.2688 23.121 13.1035C23.3962 11.7136 23.3956 10.2832 23.119 8.89355ZM20.9091 12.1338L18.2841 13.626C18.0976 13.7317 17.9438 13.8868 17.8397 14.0742C17.787 14.1719 17.7313 14.2627 17.6737 14.3555C17.558 14.5402 17.4961 14.7536 17.495 14.9717L17.4813 17.9336C16.8496 18.409 16.1577 18.7988 15.4237 19.0928L12.7723 17.6094C12.5975 17.5114 12.4005 17.46 12.2001 17.46H12.1718C12.0604 17.46 11.9472 17.46 11.8358 17.46C11.6264 17.455 11.4194 17.5059 11.2362 17.6074L8.58192 19.0879C7.84672 18.7953 7.15325 18.4072 6.51942 17.9336L6.50867 14.9805C6.50777 14.7621 6.44587 14.5483 6.32996 14.3633C6.27332 14.2715 6.21668 14.1767 6.16395 14.082C6.05978 13.8957 5.9064 13.7417 5.72059 13.6367L3.09364 12.1357C2.99158 11.3827 2.99158 10.6193 3.09364 9.8662L5.71864 8.37401C5.90482 8.26831 6.0585 8.11363 6.16297 7.92675C6.21571 7.82909 6.27137 7.7373 6.32899 7.64452C6.44472 7.45974 6.50661 7.24634 6.5077 7.02831L6.51844 4.0664C7.15043 3.59235 7.84229 3.2039 8.57606 2.91112L11.2274 4.39452C11.4106 4.49727 11.6181 4.54856 11.828 4.54296C11.9393 4.54296 12.0526 4.54296 12.1639 4.54296C12.3734 4.54791 12.5803 4.49702 12.7636 4.3955L15.4179 2.9121C16.1531 3.20464 16.8465 3.59274 17.4804 4.0664L17.4911 7.01952C17.492 7.23788 17.5539 7.45165 17.6698 7.63671C17.7264 7.72851 17.7831 7.82323 17.8358 7.91796C17.94 8.10423 18.0934 8.25829 18.2792 8.36327L20.9061 9.86034C21.0095 10.6146 21.0105 11.3793 20.9091 12.1338Z" fill="#1A1A1A"/>
</svg>
